<html>
<head>
<meta charset="UTF-8">
<meta name="viewport" content="width=device-width, initial-scale=1.0"/>

<style>
.comment
{
    padding-left: 20px;
    margin-top: 4px;
    margin-right: 4px;
    margin-bottom: 4px;
    border: 2px #000 solid;
}
.submission
{
    border: 4px #00f solid;
    padding-left: 20px;
}
.hidden
{
    display: none;
}
</style>
</head>
<body><div class="submission" id="t3_6dod1j">
    <p class="userinfo">
        <a href="https://www.reddit.com/u/Ignignokt-">Ignignokt-</a>
        <span class="score"> | 15 points</span>
        <span class="timestamp"> | May 27 2017 15:47:15</span>
    </p>
    <strong>[ANIME] Attack on Titan - S02E09 [1.1GB]</strong>
    <p><p>/#F!hDwhnLq? - ?=Q <br>
!8nmu_E4VTVq7oPN-j1zQJA<br>
Subtitles are there in the folder if I upload again I'll try and add them to the file itself. </p>
<pre><code>General
Format                                   : MPEG-4
Format profile                           : Base Media
Codec ID                                 : isom (isom/iso2/avc1/mp41)
File size                                : 1.11 GiB
Duration                                 : 24 min 10 s
Overall bit rate                         : 6 599 kb/s
Writing application                      : Lavf57.71.100

Video
ID                                       : 1
Format                                   : AVC
Format/Info                              : Advanced Video Codec
Format profile                           : High@L4
Format settings, CABAC                   : Yes
Format settings, ReFrames                : 4 frames
Codec ID                                 : avc1
Codec ID/Info                            : Advanced Video Coding
Duration                                 : 24 min 10 s
Bit rate                                 : 6 464 kb/s
Width                                    : 1 920 pixels
Height                                   : 1 080 pixels
Display aspect ratio                     : 16:9
Frame rate mode                          : Variable
Frame rate                               : 23.976 (23976/1000) FPS
Minimum frame rate                       : 23.974 FPS
Maximum frame rate                       : 23.981 FPS
Color space                              : YUV
Chroma subsampling                       : 4:2:0
Bit depth                                : 8 bits
Scan type                                : Progressive
Bits/(Pixel*Frame)                       : 0.130
Stream size                              : 1.09 GiB (98%)
Writing library                          : x264 core 142
Encoding settings                        : cabac=1 / ref=4 / deblock=1:1:1 / analyse=0x3:0x113 / me=umh / subme=8 / psy=1 / psy_rd=0.40:0.00 / mixed_ref=1 / me_range=16 / chroma_me=1 / trellis=1 / 8x8dct=1 / cqm=0 / deadzone=21,11 / fast_pskip=1 / chroma_qp_offset=-2 / threads=12 / lookahead_threads=2 / sliced_threads=0 / nr=0 / decimate=1 / interlaced=0 / bluray_compat=0 / constrained_intra=0 / bframes=3 / b_pyramid=2 / b_adapt=2 / b_bias=0 / direct=3 / weightb=1 / open_gop=0 / weightp=2 / keyint=48 / keyint_min=24 / scenecut=40 / intra_refresh=0 / rc_lookahead=48 / rc=crf / mbtree=1 / crf=15.0 / qcomp=0.60 / qpmin=0 / qpmax=69 / qpstep=4 / vbv_maxrate=8000 / vbv_bufsize=12000 / crf_max=0.0 / nal_hrd=none / filler=0 / ip_ratio=1.40 / aq=1:0.60

Audio
ID                                       : 2
Format                                   : AAC
Format/Info                              : Advanced Audio Codec
Format profile                           : LC
Codec ID                                 : 40
Duration                                 : 24 min 10 s
Bit rate mode                            : Constant
Bit rate                                 : 128 kb/s
Channel(s)                               : 2 channels
Channel positions                        : Front: L R
Sampling rate                            : 44.1 kHz
Frame rate                               : 43.066 FPS (1024 spf)
Compression mode                         : Lossy
Stream size                              : 22.1 MiB (2%)
Default                                  : Yes
Alternate group                          : 1
</code></pre></p>
    <p class="toolbar">
        <a href="https://www.reddit.com/r/megalinks/comments/6dod1j">permalink</a>
    </p>
</div>
<div class="comment" id="t1_di5nnbf">
    <p class="userinfo">
        <a
        class="toggle_hide_button"
        href="javascript:void(0)"
        onclick="toggle_collapse(this.parentElement.parentElement)">[-]
        </a>
        <a href="https://www.reddit.com/u/poopysaur">poopysaur</a>
        <span class="score"> | 1 points</span>
        <span class="timestamp"> | May 28 2017 18:51:58</span>
    </p>
    <div class="collapsible">
        <p>no work</p>
        <p class="toolbar">
            <a href="https://www.reddit.com/r/megalinks/comments/6dod1j/_/di5nnbf">permalink</a>
        </p>
        <div class="comment" id="t1_di5od6y">
    <p class="userinfo">
        <a
        class="toggle_hide_button"
        href="javascript:void(0)"
        onclick="toggle_collapse(this.parentElement.parentElement)">[-]
        </a>
        <a href="https://www.reddit.com/u/knightgale22">knightgale22</a>
        <span class="score"> | 1 points</span>
        <span class="timestamp"> | May 28 2017 19:07:53</span>
    </p>
    <div class="collapsible">
        <p>Replace the <strong>?</strong> for a <strong>Q</strong>
/#F!hDwhnLq<strong>?</strong></p>
        <p class="toolbar">
            <a href="https://www.reddit.com/r/megalinks/comments/6dod1j/_/di5od6y">permalink</a>
        </p>
        <div class="comment" id="t1_di5ordw">
    <p class="userinfo">
        <a
        class="toggle_hide_button"
        href="javascript:void(0)"
        onclick="toggle_collapse(this.parentElement.parentElement)">[-]
        </a>
        <a href="https://www.reddit.com/u/poopysaur">poopysaur</a>
        <span class="score"> | 1 points</span>
        <span class="timestamp"> | May 28 2017 19:16:28</span>
    </p>
    <div class="collapsible">
        <p>like /u/knightgale22 said.  yeah, it didn't seem specific enough, as I just copied the entire thing and removed the spaces.  i got it now, thanks bud.</p>
        <p class="toolbar">
            <a href="https://www.reddit.com/r/megalinks/comments/6dod1j/_/di5ordw">permalink</a>
        </p>
        
    </div>
</div>
    </div>
</div>
    </div>
</div>

<div class="comment" id="t1_di5oba2">
    <p class="userinfo">
        <a
        class="toggle_hide_button"
        href="javascript:void(0)"
        onclick="toggle_collapse(this.parentElement.parentElement)">[-]
        </a>
        <a href="https://www.reddit.com/u/knightgale22">knightgale22</a>
        <span class="score"> | 1 points</span>
        <span class="timestamp"> | May 28 2017 19:06:41</span>
    </p>
    <div class="collapsible">
        <p>You should be more specific, it took me a while to know what do i had to do :D</p>
        <p class="toolbar">
            <a href="https://www.reddit.com/r/megalinks/comments/6dod1j/_/di5oba2">permalink</a>
        </p>
        
    </div>
</div>
</body>

<script>
function toggle_collapse(comment_div)
{
    var button = comment_div.getElementsByClassName("toggle_hide_button")[0];
    var collapsible = comment_div.getElementsByClassName("collapsible")[0];
    if (collapsible.classList.contains("hidden"))
    {
        collapsible.classList.remove("hidden");
        button.innerText = "[-]";
    }
    else
    {
        collapsible.classList.add("hidden");
        button.innerText = "[+]";
    }
}
</script>
</html>
